<svg width="46" height="39" viewBox="0 0 46 39" fill="none" xmlns="http://www.w3.org/2000/svg">
<path fill-rule="evenodd" clip-rule="evenodd" d="M10.8235 3.54895C12.9015 1.47098 15.7198 0.303589 18.6585 0.303589C21.5972 0.303589 24.4155 1.47098 26.4935 3.54895C28.5715 5.62692 29.7389 8.44525 29.7389 11.3839C29.7389 14.3226 28.5715 17.141 26.4935 19.2189C26.2472 19.4652 25.9905 19.6987 25.7244 19.919C27.149 20.5315 28.4948 21.3294 29.7251 22.298C30.593 22.9813 30.7427 24.2387 30.0594 25.1066C29.3762 25.9745 28.1187 26.1242 27.2508 25.4409C25.2022 23.8281 22.7411 22.8245 20.1488 22.5447C17.5566 22.265 14.938 22.7205 12.5924 23.8591C10.2469 24.9977 8.26918 26.7734 6.88546 28.9832C5.50175 31.1931 4.76791 33.7477 4.76787 36.355C4.76785 37.4595 3.87241 38.355 2.76784 38.3549C1.66327 38.3549 0.767852 37.4595 0.767868 36.3549C0.767916 32.9968 1.71308 29.7066 3.49526 26.8604C5.27743 24.0142 7.82467 21.7271 10.8456 20.2607C11.0923 20.1409 11.3414 20.027 11.5926 19.919C11.3265 19.6987 11.0698 19.4652 10.8235 19.2189C8.74555 17.141 7.57816 14.3226 7.57816 11.3839C7.57816 8.44525 8.74555 5.62692 10.8235 3.54895ZM18.6585 4.30359C16.7807 4.30359 14.9798 5.04955 13.6519 6.37738C12.3241 7.7052 11.5782 9.50612 11.5782 11.3839C11.5782 13.2618 12.3241 15.0627 13.6519 16.3905C14.9798 17.7183 16.7807 18.4643 18.6585 18.4643C20.5363 18.4643 22.3373 17.7183 23.6651 16.3905C24.9929 15.0627 25.7389 13.2618 25.7389 11.3839C25.7389 9.50612 24.9929 7.7052 23.6651 6.37738C22.3373 5.04955 20.5363 4.30359 18.6585 4.30359ZM37.4706 18.2428C37.3579 18.1994 37.2367 18.1848 37.1174 18.2001C36.998 18.2153 36.884 18.2601 36.7851 18.3306C36.6863 18.4011 36.6054 18.4952 36.5496 18.6048C36.4938 18.7144 36.4646 18.8363 36.4645 18.96V31.3487C35.7763 30.7819 34.9243 30.4667 34.0428 30.4528C33.1612 30.4388 32.3002 30.7269 31.5953 31.2717C30.8905 31.8164 30.3818 32.5868 30.1494 33.4617C29.9171 34.3365 29.9742 35.2659 30.3119 36.1037C30.6495 36.9414 31.2485 37.6398 32.0145 38.0889C32.7805 38.5379 33.6699 38.7121 34.5427 38.584C35.4155 38.4559 36.2221 38.0328 36.8355 37.3813C37.4488 36.7299 37.834 35.887 37.9304 34.9856C37.9462 34.9232 37.9542 34.859 37.9543 34.7945V25.1733L44.8935 27.8498C45.0062 27.8932 45.1274 27.9079 45.2467 27.8926C45.3661 27.8773 45.4801 27.8325 45.579 27.762C45.6779 27.6916 45.7587 27.5975 45.8145 27.4879C45.8703 27.3783 45.8995 27.2564 45.8996 27.1327V23.7951C45.8998 23.1191 45.6993 22.4591 45.325 21.9034C44.9507 21.3477 44.4204 20.9228 43.805 20.6854L37.4706 18.2428Z" fill="#5F5A78"/>
</svg>
