<svg width="364" height="560" viewBox="0 0 364 560" fill="none" xmlns="http://www.w3.org/2000/svg">
<g filter="url(#filter0_d)">
<mask id="mask0" mask-type="alpha" maskUnits="userSpaceOnUse" x="4" y="0" width="360" height="560">
<rect width="360" height="560" transform="translate(4)" fill="url(#paint0_linear)"/>
</mask>
<g mask="url(#mask0)">
<mask id="path-1-inside-1" fill="white">
<path d="M-79.1422 78.7347C-67.3419 90.6009 -52.9861 100.317 -36.8943 107.329C-20.8026 114.341 -3.29004 118.51 14.6434 119.6C32.5768 120.689 50.5798 118.678 67.6247 113.679C84.6696 108.681 100.422 100.794 113.984 90.469C127.545 80.1437 138.65 67.5824 146.663 53.5021C154.676 39.4218 159.442 24.0983 160.687 8.4066C161.932 -7.28513 159.633 -23.0378 153.921 -37.9521C148.208 -52.8663 139.195 -66.6501 127.394 -78.5163L100.766 -58.2421C109.523 -49.4357 116.213 -39.2062 120.452 -28.1377C124.692 -17.0692 126.398 -5.37845 125.474 6.26705C124.549 17.9126 121.013 29.2848 115.066 39.7343C109.119 50.1839 100.878 59.5062 90.8133 67.1691C80.7489 74.8319 69.058 80.6851 56.4083 84.3945C43.7586 88.1039 30.3977 89.597 17.0886 88.7883C3.77941 87.9796 -9.21738 84.8851 -21.1597 79.6815C-33.1021 74.4778 -43.7562 67.2669 -52.5137 58.4605L-79.1422 78.7347Z"/>
</mask>
<path d="M-79.1422 78.7347C-67.3419 90.6009 -52.9861 100.317 -36.8943 107.329C-20.8026 114.341 -3.29004 118.51 14.6434 119.6C32.5768 120.689 50.5798 118.678 67.6247 113.679C84.6696 108.681 100.422 100.794 113.984 90.469C127.545 80.1437 138.65 67.5824 146.663 53.5021C154.676 39.4218 159.442 24.0983 160.687 8.4066C161.932 -7.28513 159.633 -23.0378 153.921 -37.9521C148.208 -52.8663 139.195 -66.6501 127.394 -78.5163L100.766 -58.2421C109.523 -49.4357 116.213 -39.2062 120.452 -28.1377C124.692 -17.0692 126.398 -5.37845 125.474 6.26705C124.549 17.9126 121.013 29.2848 115.066 39.7343C109.119 50.1839 100.878 59.5062 90.8133 67.1691C80.7489 74.8319 69.058 80.6851 56.4083 84.3945C43.7586 88.1039 30.3977 89.597 17.0886 88.7883C3.77941 87.9796 -9.21738 84.8851 -21.1597 79.6815C-33.1021 74.4778 -43.7562 67.2669 -52.5137 58.4605L-79.1422 78.7347Z" stroke="url(#paint1_radial)" stroke-opacity="0.71" stroke-width="56" mask="url(#path-1-inside-1)"/>
<mask id="path-2-inside-2" fill="white">
<path d="M-110.026 112.37C-93.7451 128.741 -73.9387 142.147 -51.7374 151.82C-29.536 161.494 -5.37446 167.247 19.3678 168.75C44.11 170.254 68.9484 167.478 92.4647 160.582C115.981 153.686 137.715 142.805 156.425 128.559C175.135 114.314 190.456 96.9834 201.511 77.5572C212.567 58.131 219.142 36.9896 220.86 15.3402C222.578 -6.3093 219.406 -28.0429 211.525 -48.6197C203.644 -69.1965 191.208 -88.2135 174.927 -104.585L144.305 -81.2703C157.087 -68.4175 166.85 -53.4877 173.037 -37.3334C179.224 -21.1791 181.715 -4.11668 180.366 12.8797C179.017 29.8761 173.855 46.4737 165.176 61.7246C156.496 76.9756 144.469 90.5814 129.78 101.765C115.091 112.949 98.0282 121.492 79.5661 126.905C61.1041 132.319 41.6041 134.498 22.1797 133.318C2.7552 132.138 -16.2134 127.621 -33.6431 120.027C-51.0728 112.432 -66.6222 101.908 -79.4036 89.0552L-110.026 112.37Z"/>
</mask>
<path d="M-110.026 112.37C-93.7451 128.741 -73.9387 142.147 -51.7374 151.82C-29.536 161.494 -5.37446 167.247 19.3678 168.75C44.11 170.254 68.9484 167.478 92.4647 160.582C115.981 153.686 137.715 142.805 156.425 128.559C175.135 114.314 190.456 96.9834 201.511 77.5572C212.567 58.131 219.142 36.9896 220.86 15.3402C222.578 -6.3093 219.406 -28.0429 211.525 -48.6197C203.644 -69.1965 191.208 -88.2135 174.927 -104.585L144.305 -81.2703C157.087 -68.4175 166.85 -53.4877 173.037 -37.3334C179.224 -21.1791 181.715 -4.11668 180.366 12.8797C179.017 29.8761 173.855 46.4737 165.176 61.7246C156.496 76.9756 144.469 90.5814 129.78 101.765C115.091 112.949 98.0282 121.492 79.5661 126.905C61.1041 132.319 41.6041 134.498 22.1797 133.318C2.7552 132.138 -16.2134 127.621 -33.6431 120.027C-51.0728 112.432 -66.6222 101.908 -79.4036 89.0552L-110.026 112.37Z" stroke="url(#paint2_radial)" stroke-opacity="0.71" stroke-width="56" mask="url(#path-2-inside-2)"/>
<mask id="path-3-inside-3" fill="white">
<path d="M-63.2653 36.1043C-55.4208 43.9926 -45.8775 50.4518 -35.1802 55.1129C-24.4829 59.774 -12.8411 62.5459 -0.919544 63.2702C11.002 63.9946 22.9699 62.6572 34.3008 59.3345C45.6317 56.0118 56.1037 50.7689 65.1189 43.905C74.1341 37.041 81.516 28.6906 86.843 19.3305C92.17 9.97035 95.3378 -0.216222 96.1657 -10.6476C96.9935 -21.079 95.4651 -31.5509 91.6677 -41.4654C87.8704 -51.38 81.8784 -60.543 74.0339 -68.4313L51.4878 -51.2653C56.756 -45.9677 60.7801 -39.8141 63.3303 -33.1557C65.8805 -26.4973 66.907 -19.4646 66.351 -12.4591C65.795 -5.45366 63.6676 1.3874 60.0901 7.67346C56.5126 13.9595 51.5551 19.5675 45.5007 24.1771C39.4463 28.7868 32.4136 32.3078 24.804 34.5393C17.1944 36.7707 9.15705 37.6689 1.15078 37.1824C-6.85547 36.6959 -14.6738 34.8344 -21.8579 31.7041C-29.042 28.5738 -35.451 24.236 -40.7192 18.9384L-63.2653 36.1043Z"/>
</mask>
<path d="M-63.2653 36.1043C-55.4208 43.9926 -45.8775 50.4518 -35.1802 55.1129C-24.4829 59.774 -12.8411 62.5459 -0.919544 63.2702C11.002 63.9946 22.9699 62.6572 34.3008 59.3345C45.6317 56.0118 56.1037 50.7689 65.1189 43.905C74.1341 37.041 81.516 28.6906 86.843 19.3305C92.17 9.97035 95.3378 -0.216222 96.1657 -10.6476C96.9935 -21.079 95.4651 -31.5509 91.6677 -41.4654C87.8704 -51.38 81.8784 -60.543 74.0339 -68.4313L51.4878 -51.2653C56.756 -45.9677 60.7801 -39.8141 63.3303 -33.1557C65.8805 -26.4973 66.907 -19.4646 66.351 -12.4591C65.795 -5.45366 63.6676 1.3874 60.0901 7.67346C56.5126 13.9595 51.5551 19.5675 45.5007 24.1771C39.4463 28.7868 32.4136 32.3078 24.804 34.5393C17.1944 36.7707 9.15705 37.6689 1.15078 37.1824C-6.85547 36.6959 -14.6738 34.8344 -21.8579 31.7041C-29.042 28.5738 -35.451 24.236 -40.7192 18.9384L-63.2653 36.1043Z" stroke="url(#paint3_radial)" stroke-opacity="0.71" stroke-width="56" mask="url(#path-3-inside-3)"/>
</g>
</g>
<defs>
<filter id="filter0_d" x="0" y="0" width="225.314" height="177.147" filterUnits="userSpaceOnUse" color-interpolation-filters="sRGB">
<feFlood flood-opacity="0" result="BackgroundImageFix"/>
<feColorMatrix in="SourceAlpha" type="matrix" values="0 0 0 0 0 0 0 0 0 0 0 0 0 0 0 0 0 0 127 0" result="hardAlpha"/>
<feOffset dy="4"/>
<feGaussianBlur stdDeviation="2"/>
<feComposite in2="hardAlpha" operator="out"/>
<feColorMatrix type="matrix" values="0 0 0 0 0 0 0 0 0 0 0 0 0 0 0 0 0 0 0.25 0"/>
<feBlend mode="normal" in2="BackgroundImageFix" result="effect1_dropShadow"/>
<feBlend mode="normal" in="SourceGraphic" in2="effect1_dropShadow" result="shape"/>
</filter>
<linearGradient id="paint0_linear" x1="0" y1="0" x2="361.43" y2="668.479" gradientUnits="userSpaceOnUse">
<stop offset="0.64098" stop-color="#1D1D2E"/>
<stop offset="1" stop-color="#1A192B"/>
</linearGradient>
<radialGradient id="paint1_radial" cx="0" cy="0" r="1" gradientUnits="userSpaceOnUse" gradientTransform="translate(319 -77.4386) rotate(149.817) scale(489.92 461.851)">
<stop offset="0.0985911" stop-color="#645F7D" stop-opacity="0.17"/>
<stop offset="0.277504" stop-color="#645F7D"/>
<stop offset="0.612554" stop-color="#645F7D" stop-opacity="0.0339045"/>
<stop offset="0.628327" stop-color="#645F7D" stop-opacity="0"/>
</radialGradient>
<radialGradient id="paint2_radial" cx="0" cy="0" r="1" gradientUnits="userSpaceOnUse" gradientTransform="translate(439.28 -103.098) rotate(149.817) scale(675.93 637.203)">
<stop offset="0.372454" stop-color="#645F7D" stop-opacity="0.31"/>
<stop offset="0.491325" stop-color="#645F7D" stop-opacity="0.03"/>
<stop offset="0.845618" stop-color="#645F7D" stop-opacity="0"/>
</radialGradient>
<radialGradient id="paint3_radial" cx="0" cy="0" r="1" gradientUnits="userSpaceOnUse" gradientTransform="translate(201.407 -67.7148) rotate(149.817) scale(325.684 307.024)">
<stop offset="0.0985911" stop-color="#645F7D" stop-opacity="0.17"/>
<stop offset="0.277504" stop-color="#645F7D"/>
<stop offset="0.663852" stop-color="#645F7D" stop-opacity="0"/>
</radialGradient>
</defs>
</svg>
