<svg width="45" height="49" viewBox="0 0 45 49" fill="none" xmlns="http://www.w3.org/2000/svg">
<path d="M24.8996 1.01781C24.2082 0.364189 23.2929 0 22.3415 0C21.3901 0 20.4747 0.364189 19.7834 1.01781L1.74636 18.0644C1.19409 18.587 0.75433 19.2168 0.45404 19.9154C0.153751 20.6139 -0.000750569 21.3664 2.74149e-06 22.1268V42.8671C0.000989866 44.3478 0.589882 45.7675 1.63723 46.8142C2.68459 47.8608 4.10468 48.4488 5.58537 48.4488H11.1707C12.6521 48.4488 14.0727 47.8603 15.1202 46.8128C16.1676 45.7654 16.7561 44.3447 16.7561 42.8634V33.5544C16.7561 33.0607 16.9523 32.5871 17.3014 32.238C17.6506 31.8888 18.1241 31.6927 18.6179 31.6927H26.065C26.5588 31.6927 27.0324 31.8888 27.3815 32.238C27.7307 32.5871 27.9268 33.0607 27.9268 33.5544V42.8634C27.9268 44.3447 28.5153 45.7654 29.5627 46.8128C30.6102 47.8603 32.0309 48.4488 33.5122 48.4488H39.0976C40.5789 48.4488 41.9996 47.8603 43.047 46.8128C44.0945 45.7654 44.6829 44.3447 44.6829 42.8634V22.1231C44.6827 21.3631 44.5274 20.6111 44.2264 19.9132C43.9255 19.2153 43.4853 18.5862 42.9328 18.0644L24.8996 1.01037V1.01781Z" fill="white"/>
</svg>
