<svg width="82" height="81" viewBox="0 0 82 81" fill="none" xmlns="http://www.w3.org/2000/svg">
<circle cx="41.2143" cy="40.4643" r="40.3571" fill="url(#paint0_linear)"/>
<path d="M43.9174 11.2143C43.2261 10.5606 42.3107 10.1964 41.3593 10.1964C40.4079 10.1964 39.4926 10.5606 38.8012 11.2143L20.7642 28.2608C20.2119 28.7834 19.7722 29.4133 19.4719 30.1118C19.1716 30.8104 19.0171 31.5629 19.0179 32.3232V53.0636C19.0189 54.5442 19.6077 55.9639 20.6551 57.0106C21.7024 58.0573 23.1225 58.6452 24.6032 58.6452H30.1886C31.6699 58.6452 33.0906 58.0567 34.138 57.0093C35.1855 55.9618 35.774 54.5412 35.774 53.0598V43.7509C35.774 43.2571 35.9701 42.7836 36.3193 42.4344C36.6684 42.0852 37.142 41.8891 37.6358 41.8891H45.0829C45.5767 41.8891 46.0502 42.0852 46.3994 42.4344C46.7485 42.7836 46.9447 43.2571 46.9447 43.7509V53.0598C46.9447 54.5412 47.5332 55.9618 48.5806 57.0093C49.6281 58.0567 51.0487 58.6452 52.5301 58.6452H58.1154C59.5968 58.6452 61.0174 58.0567 62.0649 57.0093C63.1123 55.9618 63.7008 54.5412 63.7008 53.0598V32.3195C63.7006 31.5595 63.5452 30.8075 63.2443 30.1097C62.9434 29.4118 62.5032 28.7827 61.9507 28.2608L43.9174 11.2068V11.2143Z" fill="white"/>
<defs>
<linearGradient id="paint0_linear" x1="0.857178" y1="40.4643" x2="78.5447" y2="37.4375" gradientUnits="userSpaceOnUse">
<stop offset="0.0130483" stop-color="#F3E9F4"/>
<stop offset="0.893916" stop-color="#FF2F73"/>
</linearGradient>
</defs>
</svg>
