<svg width="42" height="41" viewBox="0 0 42 41" fill="none" xmlns="http://www.w3.org/2000/svg">
<path d="M36.9822 0.285736H12.7679C10.5482 0.285736 8.73217 2.10181 8.73217 4.32145V28.5357C8.73217 30.7554 10.5482 32.5715 12.7679 32.5715H36.9822C39.2018 32.5715 41.0179 30.7554 41.0179 28.5357V4.32145C41.0179 2.10181 39.2018 0.285736 36.9822 0.285736ZM36.9822 28.5357H12.7679V4.32145H36.9822V28.5357ZM21.8482 26.5179C23.1862 26.5179 24.4693 25.9864 25.4153 25.0403C26.3614 24.0943 26.8929 22.8112 26.8929 21.4732V10.375H32.9465V6.33931H24.875V17.4577C24.0275 16.812 22.9984 16.4286 21.8482 16.4286C20.5103 16.4286 19.2272 16.9601 18.2811 17.9061C17.3351 18.8522 16.8036 20.1353 16.8036 21.4732C16.8036 22.8112 17.3351 24.0943 18.2811 25.0403C19.2272 25.9864 20.5103 26.5179 21.8482 26.5179ZM4.69645 8.35717H0.660736V36.6072C0.660736 38.8268 2.47681 40.6429 4.69645 40.6429H32.9465V36.6072H4.69645V8.35717Z" fill="#ffffff"/>
</svg>
