<svg width="47" height="45" viewBox="0 0 57 45" fill="none" xmlns="http://www.w3.org/2000/svg">
<path d="M9.90819 39.7602V22.4643V39.7602ZM9.90819 25.347H4.71942C4.03134 25.347 3.37145 25.6507 2.88491 26.1913C2.39837 26.7319 2.12503 27.4651 2.12503 28.2296V39.7602C2.12503 40.5248 2.39837 41.258 2.88491 41.7986C3.37145 42.3392 4.03134 42.6429 4.71942 42.6429H9.90819V25.347Z" stroke="#645F7D" stroke-width="4" stroke-linecap="round" stroke-linejoin="round"/>
<path d="M46.2296 22.4643V39.7602V22.4643ZM46.2296 25.347H51.4184C52.1065 25.347 52.7664 25.6507 53.2529 26.1913C53.7394 26.7319 54.0128 27.4651 54.0128 28.2296V39.7602C54.0128 40.5248 53.7394 41.258 53.2529 41.7986C52.7664 42.3392 52.1065 42.6429 51.4184 42.6429H46.2296V25.347Z" stroke="#645F7D" stroke-width="4" stroke-linecap="round" stroke-linejoin="round"/>
<path d="M46.2296 25.347V42.6429M9.9082 39.7602V22.4643C9.9082 11.32 18.039 2.28574 28.0689 2.28574C38.0988 2.28574 46.2296 11.32 46.2296 22.4643V39.7602H9.9082ZM9.9082 25.347V42.6429V25.347Z" stroke="#645F7D" stroke-width="4" stroke-linecap="round" stroke-linejoin="round"/>
<path d="M17.6913 33.9949H22.8801L25.4745 25.347L30.6633 42.6429L33.2577 33.9949H38.4464" stroke="#645F7D" stroke-width="4" stroke-linecap="round" stroke-linejoin="round"/>
</svg>
