<svg width="48" height="37" viewBox="0 0 48 37" fill="none" xmlns="http://www.w3.org/2000/svg">
<path d="M0.0715027 32.2181C0.0715027 31.1135 0.966933 30.2181 2.0715 30.2181H19.439C20.5436 30.2181 21.439 31.1135 21.439 32.2181V32.4916C21.439 33.5962 20.5436 34.4916 19.439 34.4916H2.0715C0.96693 34.4916 0.0715027 33.5962 0.0715027 32.4916V32.2181ZM0.0715027 17.2608C0.0715027 16.1563 0.966933 15.2608 2.0715 15.2608H27.986C29.0906 15.2608 29.986 16.1563 29.986 17.2608V17.5343C29.986 18.6389 29.0906 19.5343 27.986 19.5343H2.0715C0.966932 19.5343 0.0715027 18.6389 0.0715027 17.5343V17.2608ZM0.0715027 2.30356C0.0715027 1.19899 0.966933 0.303558 2.0715 0.303558H40.8065C41.9111 0.303558 42.8065 1.19899 42.8065 2.30356V2.57706C42.8065 3.68163 41.9111 4.57706 40.8065 4.57706H2.0715C0.966932 4.57706 0.0715027 3.68163 0.0715027 2.57706V2.30356ZM33.6106 23.8374C34.9839 23.6977 36.3963 22.723 36.3963 21.3427V12.9873C36.3963 11.8827 37.2917 10.9873 38.3963 10.9873H45.0801C46.1846 10.9873 47.0801 11.8828 47.0801 12.9873V13.2608C47.0801 14.3654 46.1846 15.2608 45.0801 15.2608H42.6698C41.5652 15.2608 40.6698 16.1563 40.6698 17.2608V30.2181C40.6691 31.5787 40.2355 32.9038 39.4317 34.0016C38.6279 35.0994 37.4957 35.913 36.1988 36.3246C34.902 36.7362 33.5078 36.7245 32.2181 36.2912C30.9283 35.8579 29.8099 35.0255 29.0246 33.9143C28.2394 32.8032 27.828 31.471 27.8501 30.1106C27.8722 28.7502 28.3266 27.4321 29.1476 26.347C29.9685 25.262 31.1134 24.4663 32.4165 24.0751C32.8082 23.9576 33.2081 23.8784 33.6106 23.8374ZM34.2595 32.3548C34.8262 32.3548 35.3697 32.1297 35.7705 31.729C36.1712 31.3283 36.3963 30.7848 36.3963 30.2181C36.3963 29.6514 36.1712 29.1079 35.7705 28.7072C35.3697 28.3065 34.8262 28.0813 34.2595 28.0813C33.6928 28.0813 33.1493 28.3065 32.7486 28.7072C32.3479 29.1079 32.1228 29.6514 32.1228 30.2181C32.1228 30.7848 32.3479 31.3283 32.7486 31.729C33.1493 32.1297 33.6928 32.3548 34.2595 32.3548Z" fill="#5D5876"/>
</svg>
