<svg width="57" height="45" viewBox="0 0 57 45" fill="none" xmlns="http://www.w3.org/2000/svg">
<path fill-rule="evenodd" clip-rule="evenodd" d="M28.0689 4.28574C19.3366 4.28574 11.9082 12.2211 11.9082 22.4643V25.347V37.7602H27.1104L25.4745 32.3072L24.7957 34.5696C24.542 35.4156 23.7633 35.9949 22.8801 35.9949H17.6913C16.5867 35.9949 15.6913 35.0995 15.6913 33.9949C15.6913 32.8904 16.5867 31.9949 17.6913 31.9949H21.392L23.5588 24.7723C23.8126 23.9263 24.5913 23.347 25.4745 23.347C26.3577 23.347 27.1363 23.9263 27.3901 24.7723L30.6632 35.6827L31.342 33.4202C31.5958 32.5743 32.3744 31.9949 33.2576 31.9949H38.4464C39.551 31.9949 40.4464 32.8904 40.4464 33.9949C40.4464 35.0995 39.551 35.9949 38.4464 35.9949H34.7457L34.2161 37.7602H44.2296L44.2296 25.347V22.4643L44.2296 22.4543C44.2248 12.216 36.7984 4.28574 28.0689 4.28574ZM33.0161 41.7602H44.2296L44.2296 42.6429L44.2296 42.6429C44.2296 42.781 44.2436 42.9158 44.2702 43.046C44.3428 43.4004 44.509 43.7206 44.742 43.9797C45.0225 44.2917 45.3998 44.5149 45.8265 44.6022C45.9567 44.6289 46.0915 44.6429 46.2296 44.6429H51.4184C52.7089 44.6429 53.8981 44.0714 54.7395 43.1365C55.5746 42.2086 56.0127 40.9912 56.0127 39.7602V28.2296C56.0127 26.9987 55.5746 25.7813 54.7395 24.8534C53.8981 23.9185 52.7089 23.347 51.4184 23.347H48.2296L48.2296 22.4643C48.2296 10.4188 39.3964 0.285736 28.0689 0.285736C16.7438 0.285736 7.91191 10.4145 7.90817 22.4567L7.90816 22.4643V23.347H4.71939C3.42881 23.347 2.23968 23.9185 1.39829 24.8534C0.563159 25.7813 0.125 26.9987 0.125 28.2296V39.7602C0.125 40.9912 0.563158 42.2086 1.39829 43.1365C2.23968 44.0714 3.42881 44.6429 4.71939 44.6429L9.90817 44.6429C10.9437 44.6429 11.7954 43.8559 11.8978 42.8474C11.9047 42.7801 11.9082 42.7119 11.9082 42.6429V41.7602H28.3104L28.7476 43.2176C29.0014 44.0636 29.78 44.6429 30.6632 44.6429C31.5465 44.6429 32.3251 44.0636 32.5789 43.2176L33.0161 41.7602Z" fill="#645F7D"/>
</svg>
